<?xml version="1.0" encoding="utf-8" standalone="no"?>
<!DOCTYPE svg PUBLIC "-//W3C//DTD SVG 1.1//EN"
  "http://www.w3.org/Graphics/SVG/1.1/DTD/svg11.dtd">
<!-- Created with matplotlib (https://matplotlib.org/) -->
<svg height="288pt" version="1.1" viewBox="0 0 576 288" width="576pt" xmlns="http://www.w3.org/2000/svg" xmlns:xlink="http://www.w3.org/1999/xlink">
 <metadata>
  <rdf:RDF xmlns:cc="http://creativecommons.org/ns#" xmlns:dc="http://purl.org/dc/elements/1.1/" xmlns:rdf="http://www.w3.org/1999/02/22-rdf-syntax-ns#">
   <cc:Work>
    <dc:type rdf:resource="http://purl.org/dc/dcmitype/StillImage"/>
    <dc:date>2020-09-15T14:47:05.090489</dc:date>
    <dc:format>image/svg+xml</dc:format>
    <dc:creator>
     <cc:Agent>
      <dc:title>Matplotlib v3.3.1, https://matplotlib.org/</dc:title>
     </cc:Agent>
    </dc:creator>
   </cc:Work>
  </rdf:RDF>
 </metadata>
 <defs>
  <style type="text/css">*{stroke-linecap:butt;stroke-linejoin:round;}</style>
 </defs>
 <g id="figure_1">
  <g id="patch_1">
   <path d="M 0 288 
L 576 288 
L 576 0 
L 0 0 
z
" style="fill:#ffffff;"/>
  </g>
  <g id="axes_1">
   <g id="patch_2">
    <path d="M 52.94 246.04 
L 565.2 246.04 
L 565.2 26.88 
L 52.94 26.88 
z
" style="fill:#ffffff;"/>
   </g>
   <g id="matplotlib.axis_1">
    <g id="xtick_1">
     <g id="line2d_1">
      <path clip-path="url(#pcb68d26958)" d="M 113.667031 246.04 
L 113.667031 26.88 
" style="fill:none;stroke:#b0b0b0;stroke-linecap:square;stroke-width:0.8;"/>
     </g>
     <g id="line2d_2">
      <defs>
       <path d="M 0 0 
L 0 3.5 
" id="mc7ef4a6d26" style="stroke:#000000;stroke-width:0.8;"/>
      </defs>
      <g>
       <use style="stroke:#000000;stroke-width:0.8;" x="113.667031" xlink:href="#mc7ef4a6d26" y="246.04"/>
      </g>
     </g>
     <g id="text_1">
      <!-- 2020-10 -->
      <g transform="translate(92.775624 260.638438)scale(0.1 -0.1)">
       <defs>
        <path d="M 19.1875 8.296875 
L 53.609375 8.296875 
L 53.609375 0 
L 7.328125 0 
L 7.328125 8.296875 
Q 12.9375 14.109375 22.625 23.890625 
Q 32.328125 33.6875 34.8125 36.53125 
Q 39.546875 41.84375 41.421875 45.53125 
Q 43.3125 49.21875 43.3125 52.78125 
Q 43.3125 58.59375 39.234375 62.25 
Q 35.15625 65.921875 28.609375 65.921875 
Q 23.96875 65.921875 18.8125 64.3125 
Q 13.671875 62.703125 7.8125 59.421875 
L 7.8125 69.390625 
Q 13.765625 71.78125 18.9375 73 
Q 24.125 74.21875 28.421875 74.21875 
Q 39.75 74.21875 46.484375 68.546875 
Q 53.21875 62.890625 53.21875 53.421875 
Q 53.21875 48.921875 51.53125 44.890625 
Q 49.859375 40.875 45.40625 35.40625 
Q 44.1875 33.984375 37.640625 27.21875 
Q 31.109375 20.453125 19.1875 8.296875 
z
" id="DejaVuSans-50"/>
        <path d="M 31.78125 66.40625 
Q 24.171875 66.40625 20.328125 58.90625 
Q 16.5 51.421875 16.5 36.375 
Q 16.5 21.390625 20.328125 13.890625 
Q 24.171875 6.390625 31.78125 6.390625 
Q 39.453125 6.390625 43.28125 13.890625 
Q 47.125 21.390625 47.125 36.375 
Q 47.125 51.421875 43.28125 58.90625 
Q 39.453125 66.40625 31.78125 66.40625 
z
M 31.78125 74.21875 
Q 44.046875 74.21875 50.515625 64.515625 
Q 56.984375 54.828125 56.984375 36.375 
Q 56.984375 17.96875 50.515625 8.265625 
Q 44.046875 -1.421875 31.78125 -1.421875 
Q 19.53125 -1.421875 13.0625 8.265625 
Q 6.59375 17.96875 6.59375 36.375 
Q 6.59375 54.828125 13.0625 64.515625 
Q 19.53125 74.21875 31.78125 74.21875 
z
" id="DejaVuSans-48"/>
        <path d="M 4.890625 31.390625 
L 31.203125 31.390625 
L 31.203125 23.390625 
L 4.890625 23.390625 
z
" id="DejaVuSans-45"/>
        <path d="M 12.40625 8.296875 
L 28.515625 8.296875 
L 28.515625 63.921875 
L 10.984375 60.40625 
L 10.984375 69.390625 
L 28.421875 72.90625 
L 38.28125 72.90625 
L 38.28125 8.296875 
L 54.390625 8.296875 
L 54.390625 0 
L 12.40625 0 
z
" id="DejaVuSans-49"/>
       </defs>
       <use xlink:href="#DejaVuSans-50"/>
       <use x="63.623047" xlink:href="#DejaVuSans-48"/>
       <use x="127.246094" xlink:href="#DejaVuSans-50"/>
       <use x="190.869141" xlink:href="#DejaVuSans-48"/>
       <use x="254.492188" xlink:href="#DejaVuSans-45"/>
       <use x="290.576172" xlink:href="#DejaVuSans-49"/>
       <use x="354.199219" xlink:href="#DejaVuSans-48"/>
      </g>
     </g>
    </g>
    <g id="xtick_2">
     <g id="line2d_3">
      <path clip-path="url(#pcb68d26958)" d="M 186.211846 246.04 
L 186.211846 26.88 
" style="fill:none;stroke:#b0b0b0;stroke-linecap:square;stroke-width:0.8;"/>
     </g>
     <g id="line2d_4">
      <g>
       <use style="stroke:#000000;stroke-width:0.8;" x="186.211846" xlink:href="#mc7ef4a6d26" y="246.04"/>
      </g>
     </g>
     <g id="text_2">
      <!-- 2020-11 -->
      <g transform="translate(165.320439 260.638438)scale(0.1 -0.1)">
       <use xlink:href="#DejaVuSans-50"/>
       <use x="63.623047" xlink:href="#DejaVuSans-48"/>
       <use x="127.246094" xlink:href="#DejaVuSans-50"/>
       <use x="190.869141" xlink:href="#DejaVuSans-48"/>
       <use x="254.492188" xlink:href="#DejaVuSans-45"/>
       <use x="290.576172" xlink:href="#DejaVuSans-49"/>
       <use x="354.199219" xlink:href="#DejaVuSans-49"/>
      </g>
     </g>
    </g>
    <g id="xtick_3">
     <g id="line2d_5">
      <path clip-path="url(#pcb68d26958)" d="M 256.416505 246.04 
L 256.416505 26.88 
" style="fill:none;stroke:#b0b0b0;stroke-linecap:square;stroke-width:0.8;"/>
     </g>
     <g id="line2d_6">
      <g>
       <use style="stroke:#000000;stroke-width:0.8;" x="256.416505" xlink:href="#mc7ef4a6d26" y="246.04"/>
      </g>
     </g>
     <g id="text_3">
      <!-- 2020-12 -->
      <g transform="translate(235.525099 260.638438)scale(0.1 -0.1)">
       <use xlink:href="#DejaVuSans-50"/>
       <use x="63.623047" xlink:href="#DejaVuSans-48"/>
       <use x="127.246094" xlink:href="#DejaVuSans-50"/>
       <use x="190.869141" xlink:href="#DejaVuSans-48"/>
       <use x="254.492188" xlink:href="#DejaVuSans-45"/>
       <use x="290.576172" xlink:href="#DejaVuSans-49"/>
       <use x="354.199219" xlink:href="#DejaVuSans-50"/>
      </g>
     </g>
    </g>
    <g id="xtick_4">
     <g id="line2d_7">
      <path clip-path="url(#pcb68d26958)" d="M 328.96132 246.04 
L 328.96132 26.88 
" style="fill:none;stroke:#b0b0b0;stroke-linecap:square;stroke-width:0.8;"/>
     </g>
     <g id="line2d_8">
      <g>
       <use style="stroke:#000000;stroke-width:0.8;" x="328.96132" xlink:href="#mc7ef4a6d26" y="246.04"/>
      </g>
     </g>
     <g id="text_4">
      <!-- 2021-01 -->
      <g transform="translate(308.069914 260.638438)scale(0.1 -0.1)">
       <use xlink:href="#DejaVuSans-50"/>
       <use x="63.623047" xlink:href="#DejaVuSans-48"/>
       <use x="127.246094" xlink:href="#DejaVuSans-50"/>
       <use x="190.869141" xlink:href="#DejaVuSans-49"/>
       <use x="254.492188" xlink:href="#DejaVuSans-45"/>
       <use x="290.576172" xlink:href="#DejaVuSans-48"/>
       <use x="354.199219" xlink:href="#DejaVuSans-49"/>
      </g>
     </g>
    </g>
    <g id="xtick_5">
     <g id="line2d_9">
      <path clip-path="url(#pcb68d26958)" d="M 401.506135 246.04 
L 401.506135 26.88 
" style="fill:none;stroke:#b0b0b0;stroke-linecap:square;stroke-width:0.8;"/>
     </g>
     <g id="line2d_10">
      <g>
       <use style="stroke:#000000;stroke-width:0.8;" x="401.506135" xlink:href="#mc7ef4a6d26" y="246.04"/>
      </g>
     </g>
     <g id="text_5">
      <!-- 2021-02 -->
      <g transform="translate(380.614729 260.638438)scale(0.1 -0.1)">
       <use xlink:href="#DejaVuSans-50"/>
       <use x="63.623047" xlink:href="#DejaVuSans-48"/>
       <use x="127.246094" xlink:href="#DejaVuSans-50"/>
       <use x="190.869141" xlink:href="#DejaVuSans-49"/>
       <use x="254.492188" xlink:href="#DejaVuSans-45"/>
       <use x="290.576172" xlink:href="#DejaVuSans-48"/>
       <use x="354.199219" xlink:href="#DejaVuSans-50"/>
      </g>
     </g>
    </g>
    <g id="xtick_6">
     <g id="line2d_11">
      <path clip-path="url(#pcb68d26958)" d="M 467.030484 246.04 
L 467.030484 26.88 
" style="fill:none;stroke:#b0b0b0;stroke-linecap:square;stroke-width:0.8;"/>
     </g>
     <g id="line2d_12">
      <g>
       <use style="stroke:#000000;stroke-width:0.8;" x="467.030484" xlink:href="#mc7ef4a6d26" y="246.04"/>
      </g>
     </g>
     <g id="text_6">
      <!-- 2021-03 -->
      <g transform="translate(446.139078 260.638438)scale(0.1 -0.1)">
       <defs>
        <path d="M 40.578125 39.3125 
Q 47.65625 37.796875 51.625 33 
Q 55.609375 28.21875 55.609375 21.1875 
Q 55.609375 10.40625 48.1875 4.484375 
Q 40.765625 -1.421875 27.09375 -1.421875 
Q 22.515625 -1.421875 17.65625 -0.515625 
Q 12.796875 0.390625 7.625 2.203125 
L 7.625 11.71875 
Q 11.71875 9.328125 16.59375 8.109375 
Q 21.484375 6.890625 26.8125 6.890625 
Q 36.078125 6.890625 40.9375 10.546875 
Q 45.796875 14.203125 45.796875 21.1875 
Q 45.796875 27.640625 41.28125 31.265625 
Q 36.765625 34.90625 28.71875 34.90625 
L 20.21875 34.90625 
L 20.21875 43.015625 
L 29.109375 43.015625 
Q 36.375 43.015625 40.234375 45.921875 
Q 44.09375 48.828125 44.09375 54.296875 
Q 44.09375 59.90625 40.109375 62.90625 
Q 36.140625 65.921875 28.71875 65.921875 
Q 24.65625 65.921875 20.015625 65.03125 
Q 15.375 64.15625 9.8125 62.3125 
L 9.8125 71.09375 
Q 15.4375 72.65625 20.34375 73.4375 
Q 25.25 74.21875 29.59375 74.21875 
Q 40.828125 74.21875 47.359375 69.109375 
Q 53.90625 64.015625 53.90625 55.328125 
Q 53.90625 49.265625 50.4375 45.09375 
Q 46.96875 40.921875 40.578125 39.3125 
z
" id="DejaVuSans-51"/>
       </defs>
       <use xlink:href="#DejaVuSans-50"/>
       <use x="63.623047" xlink:href="#DejaVuSans-48"/>
       <use x="127.246094" xlink:href="#DejaVuSans-50"/>
       <use x="190.869141" xlink:href="#DejaVuSans-49"/>
       <use x="254.492188" xlink:href="#DejaVuSans-45"/>
       <use x="290.576172" xlink:href="#DejaVuSans-48"/>
       <use x="354.199219" xlink:href="#DejaVuSans-51"/>
      </g>
     </g>
    </g>
    <g id="xtick_7">
     <g id="line2d_13">
      <path clip-path="url(#pcb68d26958)" d="M 539.575299 246.04 
L 539.575299 26.88 
" style="fill:none;stroke:#b0b0b0;stroke-linecap:square;stroke-width:0.8;"/>
     </g>
     <g id="line2d_14">
      <g>
       <use style="stroke:#000000;stroke-width:0.8;" x="539.575299" xlink:href="#mc7ef4a6d26" y="246.04"/>
      </g>
     </g>
     <g id="text_7">
      <!-- 2021-04 -->
      <g transform="translate(518.683893 260.638438)scale(0.1 -0.1)">
       <defs>
        <path d="M 37.796875 64.3125 
L 12.890625 25.390625 
L 37.796875 25.390625 
z
M 35.203125 72.90625 
L 47.609375 72.90625 
L 47.609375 25.390625 
L 58.015625 25.390625 
L 58.015625 17.1875 
L 47.609375 17.1875 
L 47.609375 0 
L 37.796875 0 
L 37.796875 17.1875 
L 4.890625 17.1875 
L 4.890625 26.703125 
z
" id="DejaVuSans-52"/>
       </defs>
       <use xlink:href="#DejaVuSans-50"/>
       <use x="63.623047" xlink:href="#DejaVuSans-48"/>
       <use x="127.246094" xlink:href="#DejaVuSans-50"/>
       <use x="190.869141" xlink:href="#DejaVuSans-49"/>
       <use x="254.492188" xlink:href="#DejaVuSans-45"/>
       <use x="290.576172" xlink:href="#DejaVuSans-48"/>
       <use x="354.199219" xlink:href="#DejaVuSans-52"/>
      </g>
     </g>
    </g>
    <g id="text_8">
     <!-- Date -->
     <g transform="translate(297.119219 274.316562)scale(0.1 -0.1)">
      <defs>
       <path d="M 19.671875 64.796875 
L 19.671875 8.109375 
L 31.59375 8.109375 
Q 46.6875 8.109375 53.6875 14.9375 
Q 60.6875 21.78125 60.6875 36.53125 
Q 60.6875 51.171875 53.6875 57.984375 
Q 46.6875 64.796875 31.59375 64.796875 
z
M 9.8125 72.90625 
L 30.078125 72.90625 
Q 51.265625 72.90625 61.171875 64.09375 
Q 71.09375 55.28125 71.09375 36.53125 
Q 71.09375 17.671875 61.125 8.828125 
Q 51.171875 0 30.078125 0 
L 9.8125 0 
z
" id="DejaVuSans-68"/>
       <path d="M 34.28125 27.484375 
Q 23.390625 27.484375 19.1875 25 
Q 14.984375 22.515625 14.984375 16.5 
Q 14.984375 11.71875 18.140625 8.90625 
Q 21.296875 6.109375 26.703125 6.109375 
Q 34.1875 6.109375 38.703125 11.40625 
Q 43.21875 16.703125 43.21875 25.484375 
L 43.21875 27.484375 
z
M 52.203125 31.203125 
L 52.203125 0 
L 43.21875 0 
L 43.21875 8.296875 
Q 40.140625 3.328125 35.546875 0.953125 
Q 30.953125 -1.421875 24.3125 -1.421875 
Q 15.921875 -1.421875 10.953125 3.296875 
Q 6 8.015625 6 15.921875 
Q 6 25.140625 12.171875 29.828125 
Q 18.359375 34.515625 30.609375 34.515625 
L 43.21875 34.515625 
L 43.21875 35.40625 
Q 43.21875 41.609375 39.140625 45 
Q 35.0625 48.390625 27.6875 48.390625 
Q 23 48.390625 18.546875 47.265625 
Q 14.109375 46.140625 10.015625 43.890625 
L 10.015625 52.203125 
Q 14.9375 54.109375 19.578125 55.046875 
Q 24.21875 56 28.609375 56 
Q 40.484375 56 46.34375 49.84375 
Q 52.203125 43.703125 52.203125 31.203125 
z
" id="DejaVuSans-97"/>
       <path d="M 18.3125 70.21875 
L 18.3125 54.6875 
L 36.8125 54.6875 
L 36.8125 47.703125 
L 18.3125 47.703125 
L 18.3125 18.015625 
Q 18.3125 11.328125 20.140625 9.421875 
Q 21.96875 7.515625 27.59375 7.515625 
L 36.8125 7.515625 
L 36.8125 0 
L 27.59375 0 
Q 17.1875 0 13.234375 3.875 
Q 9.28125 7.765625 9.28125 18.015625 
L 9.28125 47.703125 
L 2.6875 47.703125 
L 2.6875 54.6875 
L 9.28125 54.6875 
L 9.28125 70.21875 
z
" id="DejaVuSans-116"/>
       <path d="M 56.203125 29.59375 
L 56.203125 25.203125 
L 14.890625 25.203125 
Q 15.484375 15.921875 20.484375 11.0625 
Q 25.484375 6.203125 34.421875 6.203125 
Q 39.59375 6.203125 44.453125 7.46875 
Q 49.3125 8.734375 54.109375 11.28125 
L 54.109375 2.78125 
Q 49.265625 0.734375 44.1875 -0.34375 
Q 39.109375 -1.421875 33.890625 -1.421875 
Q 20.796875 -1.421875 13.15625 6.1875 
Q 5.515625 13.8125 5.515625 26.8125 
Q 5.515625 40.234375 12.765625 48.109375 
Q 20.015625 56 32.328125 56 
Q 43.359375 56 49.78125 48.890625 
Q 56.203125 41.796875 56.203125 29.59375 
z
M 47.21875 32.234375 
Q 47.125 39.59375 43.09375 43.984375 
Q 39.0625 48.390625 32.421875 48.390625 
Q 24.90625 48.390625 20.390625 44.140625 
Q 15.875 39.890625 15.1875 32.171875 
z
" id="DejaVuSans-101"/>
      </defs>
      <use xlink:href="#DejaVuSans-68"/>
      <use x="77.001953" xlink:href="#DejaVuSans-97"/>
      <use x="138.28125" xlink:href="#DejaVuSans-116"/>
      <use x="177.490234" xlink:href="#DejaVuSans-101"/>
     </g>
    </g>
   </g>
   <g id="matplotlib.axis_2">
    <g id="ytick_1">
     <g id="line2d_15">
      <path clip-path="url(#pcb68d26958)" d="M 52.94 218.684453 
L 565.2 218.684453 
" style="fill:none;stroke:#b0b0b0;stroke-linecap:square;stroke-width:0.8;"/>
     </g>
     <g id="line2d_16">
      <defs>
       <path d="M 0 0 
L -3.5 0 
" id="m00ff11b427" style="stroke:#000000;stroke-width:0.8;"/>
      </defs>
      <g>
       <use style="stroke:#000000;stroke-width:0.8;" x="52.94" xlink:href="#m00ff11b427" y="218.684453"/>
      </g>
     </g>
     <g id="text_9">
      <!-- −20 -->
      <g transform="translate(24.835313 222.483671)scale(0.1 -0.1)">
       <defs>
        <path d="M 10.59375 35.5 
L 73.1875 35.5 
L 73.1875 27.203125 
L 10.59375 27.203125 
z
" id="DejaVuSans-8722"/>
       </defs>
       <use xlink:href="#DejaVuSans-8722"/>
       <use x="83.789062" xlink:href="#DejaVuSans-50"/>
       <use x="147.412109" xlink:href="#DejaVuSans-48"/>
      </g>
     </g>
    </g>
    <g id="ytick_2">
     <g id="line2d_17">
      <path clip-path="url(#pcb68d26958)" d="M 52.94 172.300746 
L 565.2 172.300746 
" style="fill:none;stroke:#b0b0b0;stroke-linecap:square;stroke-width:0.8;"/>
     </g>
     <g id="line2d_18">
      <g>
       <use style="stroke:#000000;stroke-width:0.8;" x="52.94" xlink:href="#m00ff11b427" y="172.300746"/>
      </g>
     </g>
     <g id="text_10">
      <!-- −10 -->
      <g transform="translate(24.835313 176.099965)scale(0.1 -0.1)">
       <use xlink:href="#DejaVuSans-8722"/>
       <use x="83.789062" xlink:href="#DejaVuSans-49"/>
       <use x="147.412109" xlink:href="#DejaVuSans-48"/>
      </g>
     </g>
    </g>
    <g id="ytick_3">
     <g id="line2d_19">
      <path clip-path="url(#pcb68d26958)" d="M 52.94 125.917039 
L 565.2 125.917039 
" style="fill:none;stroke:#b0b0b0;stroke-linecap:square;stroke-width:0.8;"/>
     </g>
     <g id="line2d_20">
      <g>
       <use style="stroke:#000000;stroke-width:0.8;" x="52.94" xlink:href="#m00ff11b427" y="125.917039"/>
      </g>
     </g>
     <g id="text_11">
      <!-- 0 -->
      <g transform="translate(39.5775 129.716258)scale(0.1 -0.1)">
       <use xlink:href="#DejaVuSans-48"/>
      </g>
     </g>
    </g>
    <g id="ytick_4">
     <g id="line2d_21">
      <path clip-path="url(#pcb68d26958)" d="M 52.94 79.533332 
L 565.2 79.533332 
" style="fill:none;stroke:#b0b0b0;stroke-linecap:square;stroke-width:0.8;"/>
     </g>
     <g id="line2d_22">
      <g>
       <use style="stroke:#000000;stroke-width:0.8;" x="52.94" xlink:href="#m00ff11b427" y="79.533332"/>
      </g>
     </g>
     <g id="text_12">
      <!-- 10 -->
      <g transform="translate(33.215 83.332551)scale(0.1 -0.1)">
       <use xlink:href="#DejaVuSans-49"/>
       <use x="63.623047" xlink:href="#DejaVuSans-48"/>
      </g>
     </g>
    </g>
    <g id="ytick_5">
     <g id="line2d_23">
      <path clip-path="url(#pcb68d26958)" d="M 52.94 33.149626 
L 565.2 33.149626 
" style="fill:none;stroke:#b0b0b0;stroke-linecap:square;stroke-width:0.8;"/>
     </g>
     <g id="line2d_24">
      <g>
       <use style="stroke:#000000;stroke-width:0.8;" x="52.94" xlink:href="#m00ff11b427" y="33.149626"/>
      </g>
     </g>
     <g id="text_13">
      <!-- 20 -->
      <g transform="translate(33.215 36.948844)scale(0.1 -0.1)">
       <use xlink:href="#DejaVuSans-50"/>
       <use x="63.623047" xlink:href="#DejaVuSans-48"/>
      </g>
     </g>
    </g>
    <g id="text_14">
     <!-- Cummulative sum -->
     <g transform="translate(18.755625 182.100625)rotate(-90)scale(0.1 -0.1)">
      <defs>
       <path d="M 64.40625 67.28125 
L 64.40625 56.890625 
Q 59.421875 61.53125 53.78125 63.8125 
Q 48.140625 66.109375 41.796875 66.109375 
Q 29.296875 66.109375 22.65625 58.46875 
Q 16.015625 50.828125 16.015625 36.375 
Q 16.015625 21.96875 22.65625 14.328125 
Q 29.296875 6.6875 41.796875 6.6875 
Q 48.140625 6.6875 53.78125 8.984375 
Q 59.421875 11.28125 64.40625 15.921875 
L 64.40625 5.609375 
Q 59.234375 2.09375 53.4375 0.328125 
Q 47.65625 -1.421875 41.21875 -1.421875 
Q 24.65625 -1.421875 15.125 8.703125 
Q 5.609375 18.84375 5.609375 36.375 
Q 5.609375 53.953125 15.125 64.078125 
Q 24.65625 74.21875 41.21875 74.21875 
Q 47.75 74.21875 53.53125 72.484375 
Q 59.328125 70.75 64.40625 67.28125 
z
" id="DejaVuSans-67"/>
       <path d="M 8.5 21.578125 
L 8.5 54.6875 
L 17.484375 54.6875 
L 17.484375 21.921875 
Q 17.484375 14.15625 20.5 10.265625 
Q 23.53125 6.390625 29.59375 6.390625 
Q 36.859375 6.390625 41.078125 11.03125 
Q 45.3125 15.671875 45.3125 23.6875 
L 45.3125 54.6875 
L 54.296875 54.6875 
L 54.296875 0 
L 45.3125 0 
L 45.3125 8.40625 
Q 42.046875 3.421875 37.71875 1 
Q 33.40625 -1.421875 27.6875 -1.421875 
Q 18.265625 -1.421875 13.375 4.4375 
Q 8.5 10.296875 8.5 21.578125 
z
M 31.109375 56 
z
" id="DejaVuSans-117"/>
       <path d="M 52 44.1875 
Q 55.375 50.25 60.0625 53.125 
Q 64.75 56 71.09375 56 
Q 79.640625 56 84.28125 50.015625 
Q 88.921875 44.046875 88.921875 33.015625 
L 88.921875 0 
L 79.890625 0 
L 79.890625 32.71875 
Q 79.890625 40.578125 77.09375 44.375 
Q 74.3125 48.1875 68.609375 48.1875 
Q 61.625 48.1875 57.5625 43.546875 
Q 53.515625 38.921875 53.515625 30.90625 
L 53.515625 0 
L 44.484375 0 
L 44.484375 32.71875 
Q 44.484375 40.625 41.703125 44.40625 
Q 38.921875 48.1875 33.109375 48.1875 
Q 26.21875 48.1875 22.15625 43.53125 
Q 18.109375 38.875 18.109375 30.90625 
L 18.109375 0 
L 9.078125 0 
L 9.078125 54.6875 
L 18.109375 54.6875 
L 18.109375 46.1875 
Q 21.1875 51.21875 25.484375 53.609375 
Q 29.78125 56 35.6875 56 
Q 41.65625 56 45.828125 52.96875 
Q 50 49.953125 52 44.1875 
z
" id="DejaVuSans-109"/>
       <path d="M 9.421875 75.984375 
L 18.40625 75.984375 
L 18.40625 0 
L 9.421875 0 
z
" id="DejaVuSans-108"/>
       <path d="M 9.421875 54.6875 
L 18.40625 54.6875 
L 18.40625 0 
L 9.421875 0 
z
M 9.421875 75.984375 
L 18.40625 75.984375 
L 18.40625 64.59375 
L 9.421875 64.59375 
z
" id="DejaVuSans-105"/>
       <path d="M 2.984375 54.6875 
L 12.5 54.6875 
L 29.59375 8.796875 
L 46.6875 54.6875 
L 56.203125 54.6875 
L 35.6875 0 
L 23.484375 0 
z
" id="DejaVuSans-118"/>
       <path id="DejaVuSans-32"/>
       <path d="M 44.28125 53.078125 
L 44.28125 44.578125 
Q 40.484375 46.53125 36.375 47.5 
Q 32.28125 48.484375 27.875 48.484375 
Q 21.1875 48.484375 17.84375 46.4375 
Q 14.5 44.390625 14.5 40.28125 
Q 14.5 37.15625 16.890625 35.375 
Q 19.28125 33.59375 26.515625 31.984375 
L 29.59375 31.296875 
Q 39.15625 29.25 43.1875 25.515625 
Q 47.21875 21.78125 47.21875 15.09375 
Q 47.21875 7.46875 41.1875 3.015625 
Q 35.15625 -1.421875 24.609375 -1.421875 
Q 20.21875 -1.421875 15.453125 -0.5625 
Q 10.6875 0.296875 5.421875 2 
L 5.421875 11.28125 
Q 10.40625 8.6875 15.234375 7.390625 
Q 20.0625 6.109375 24.8125 6.109375 
Q 31.15625 6.109375 34.5625 8.28125 
Q 37.984375 10.453125 37.984375 14.40625 
Q 37.984375 18.0625 35.515625 20.015625 
Q 33.0625 21.96875 24.703125 23.78125 
L 21.578125 24.515625 
Q 13.234375 26.265625 9.515625 29.90625 
Q 5.8125 33.546875 5.8125 39.890625 
Q 5.8125 47.609375 11.28125 51.796875 
Q 16.75 56 26.8125 56 
Q 31.78125 56 36.171875 55.265625 
Q 40.578125 54.546875 44.28125 53.078125 
z
" id="DejaVuSans-115"/>
      </defs>
      <use xlink:href="#DejaVuSans-67"/>
      <use x="69.824219" xlink:href="#DejaVuSans-117"/>
      <use x="133.203125" xlink:href="#DejaVuSans-109"/>
      <use x="230.615234" xlink:href="#DejaVuSans-109"/>
      <use x="328.027344" xlink:href="#DejaVuSans-117"/>
      <use x="391.40625" xlink:href="#DejaVuSans-108"/>
      <use x="419.189453" xlink:href="#DejaVuSans-97"/>
      <use x="480.46875" xlink:href="#DejaVuSans-116"/>
      <use x="519.677734" xlink:href="#DejaVuSans-105"/>
      <use x="547.460938" xlink:href="#DejaVuSans-118"/>
      <use x="606.640625" xlink:href="#DejaVuSans-101"/>
      <use x="668.164062" xlink:href="#DejaVuSans-32"/>
      <use x="699.951172" xlink:href="#DejaVuSans-115"/>
      <use x="752.050781" xlink:href="#DejaVuSans-117"/>
      <use x="815.429688" xlink:href="#DejaVuSans-109"/>
     </g>
    </g>
   </g>
   <g id="line2d_25">
    <path clip-path="url(#pcb68d26958)" d="M 76.224545 125.106535 
L 78.564701 130.568934 
L 80.904856 125.754557 
L 83.245011 128.804918 
L 85.585167 128.718402 
L 87.925322 132.268569 
L 90.265477 128.29274 
L 92.605633 130.235182 
L 94.945788 134.698702 
L 97.285943 135.644384 
L 99.626099 127.842832 
L 101.966254 124.357899 
L 104.306409 118.623872 
L 106.646565 113.644186 
L 108.98672 111.388825 
L 111.326875 116.993286 
L 113.667031 113.084721 
L 116.007186 116.085228 
L 118.347341 116.366959 
L 120.687497 120.703037 
L 123.027652 126.1671 
L 125.367807 118.340562 
L 127.707963 117.409404 
L 130.048118 114.999449 
L 132.388273 112.369615 
L 134.728429 110.222252 
L 137.068584 104.46806 
L 139.408739 91.078248 
L 141.748894 94.812892 
L 144.08905 104.264131 
L 146.429205 106.506952 
L 148.76936 104.926706 
L 151.109516 96.200574 
L 153.449671 92.898692 
L 155.789826 82.494136 
L 158.129982 83.439035 
L 160.470137 85.027536 
L 162.810292 91.452012 
L 165.150448 91.268687 
L 167.490603 95.650011 
L 169.830758 102.309603 
L 172.170914 106.771262 
L 174.511069 109.100936 
L 176.851224 105.993921 
L 179.19138 105.998062 
L 181.531535 105.646731 
L 183.87169 107.285769 
L 186.211846 113.393484 
L 188.552001 113.881997 
L 190.892156 109.189383 
L 193.232312 112.578539 
L 195.572467 105.636947 
L 197.912622 102.719724 
L 200.252778 103.175307 
L 202.592933 95.577693 
L 204.933088 93.371395 
L 207.273243 93.488389 
L 209.613399 90.848872 
L 211.953554 82.155918 
L 214.293709 77.951761 
L 216.633865 74.079018 
L 218.97402 77.555534 
L 221.314175 76.344571 
L 223.654331 84.151683 
L 225.994486 97.025595 
L 228.334641 97.614386 
L 230.674797 97.213487 
L 233.014952 99.040373 
L 235.355107 104.958273 
L 237.695263 113.552937 
L 240.035418 112.028127 
L 242.375573 112.934101 
L 244.715729 111.983844 
L 247.055884 109.788302 
L 249.396039 111.048508 
L 251.736195 113.237313 
L 254.07635 110.949416 
L 256.416505 111.399564 
L 258.756661 114.864029 
L 261.096816 120.067842 
L 263.436971 123.383988 
L 265.777127 128.705105 
L 268.117282 137.982859 
L 270.457437 138.859855 
L 272.797593 145.515708 
L 275.137748 142.717502 
L 277.477903 142.457627 
L 279.818058 153.641951 
L 282.158214 155.889585 
L 284.498369 152.227471 
L 286.838524 153.756575 
L 289.17868 157.83398 
L 291.518835 161.355352 
L 293.85899 162.735509 
L 296.199146 166.179069 
L 298.539301 159.086937 
L 300.879456 157.555514 
L 303.219612 156.202125 
L 305.559767 164.984978 
L 307.899922 154.213287 
L 310.240078 162.920617 
L 312.580233 161.981538 
L 314.920388 153.064791 
L 317.260544 146.86395 
L 319.600699 154.445011 
L 321.940854 157.230481 
L 324.28101 161.029755 
L 326.621165 153.000332 
L 328.96132 153.124299 
L 331.301476 158.515129 
L 333.641631 155.821045 
L 335.981786 156.671742 
L 338.321942 151.990291 
L 340.662097 157.107656 
L 343.002252 151.838329 
L 345.342407 154.284054 
L 347.682563 143.879737 
L 350.022718 149.583542 
L 352.362873 145.50255 
L 354.703029 142.036787 
L 357.043184 147.931921 
L 359.383339 150.421397 
L 361.723495 142.897634 
L 364.06365 149.370391 
L 366.403805 146.692538 
L 368.743961 148.765814 
L 371.084116 151.425512 
L 373.424271 153.598033 
L 375.764427 156.861134 
L 378.104582 155.335872 
L 380.444737 151.102581 
L 382.784893 146.211009 
L 385.125048 153.896523 
L 387.465203 155.580338 
L 389.805359 159.647397 
L 392.145514 158.047325 
L 394.485669 159.834061 
L 396.825825 161.445914 
L 399.16598 165.914282 
L 401.506135 155.150564 
L 403.846291 150.573943 
L 406.186446 144.656327 
L 408.526601 151.246454 
L 410.866757 148.135579 
L 413.206912 147.555589 
L 415.547067 136.396512 
L 417.887222 133.15516 
L 420.227378 143.055306 
L 422.567533 144.744299 
L 424.907688 138.191938 
L 427.247844 134.86008 
L 429.587999 142.60008 
L 431.928154 145.74724 
L 434.26831 146.842463 
L 436.608465 144.697777 
L 438.94862 142.720628 
L 441.288776 143.197631 
L 443.628931 137.296667 
L 445.969086 130.739726 
L 448.309242 131.745332 
L 450.649397 139.285241 
L 452.989552 138.783996 
L 455.329708 137.275575 
L 457.669863 140.574425 
L 460.010018 135.586076 
L 462.350174 131.485026 
L 464.690329 135.833161 
L 467.030484 123.992878 
L 469.37064 118.983015 
L 471.710795 116.38125 
L 474.05095 112.083593 
L 476.391106 112.350526 
L 478.731261 113.86127 
L 481.071416 112.329055 
L 483.411571 109.350258 
L 485.751727 109.766934 
L 488.091882 110.451656 
L 490.432037 108.784884 
L 492.772193 101.628342 
L 495.112348 108.675948 
L 499.792659 109.476626 
L 502.132814 106.99536 
L 504.472969 108.114263 
L 506.813125 111.303839 
L 509.15328 111.605914 
L 511.493435 114.305286 
L 513.833591 109.354353 
L 518.513901 111.573573 
L 520.854057 113.347155 
L 523.194212 111.034595 
L 525.534367 110.78669 
L 527.874523 114.345622 
L 530.214678 119.636333 
L 532.554833 117.177058 
L 534.894989 118.073267 
L 537.235144 120.220899 
L 539.575299 124.959905 
L 541.915455 122.57403 
L 541.915455 122.57403 
" style="fill:none;stroke:#1f77b4;stroke-linecap:square;stroke-width:1.5;"/>
   </g>
   <g id="line2d_26">
    <path clip-path="url(#pcb68d26958)" d="M 76.224545 124.039139 
L 78.564701 119.739696 
L 80.904856 122.289063 
L 83.245011 112.970945 
L 85.585167 107.338447 
L 87.925322 108.537303 
L 90.265477 100.62219 
L 92.605633 94.546089 
L 94.945788 101.577172 
L 97.285943 95.735642 
L 99.626099 94.104648 
L 101.966254 93.884769 
L 104.306409 95.393977 
L 106.646565 89.412604 
L 108.98672 88.319884 
L 111.326875 96.167785 
L 113.667031 91.795078 
L 116.007186 94.83511 
L 118.347341 98.346543 
L 120.687497 97.538544 
L 123.027652 102.301276 
L 125.367807 105.418568 
L 127.707963 93.127483 
L 130.048118 97.185064 
L 132.388273 106.000565 
L 134.728429 109.590517 
L 137.068584 105.351592 
L 139.408739 102.484986 
L 141.748894 108.2884 
L 144.08905 104.450241 
L 146.429205 112.440429 
L 148.76936 108.151576 
L 151.109516 115.455711 
L 153.449671 118.19591 
L 155.789826 122.72287 
L 158.129982 122.588035 
L 160.470137 127.925782 
L 162.810292 130.412725 
L 165.150448 131.276018 
L 167.490603 131.374414 
L 169.830758 132.878154 
L 174.511069 141.509034 
L 176.851224 146.604722 
L 179.19138 147.326288 
L 181.531535 156.053492 
L 183.87169 162.654688 
L 186.211846 160.601543 
L 188.552001 162.918348 
L 190.892156 163.865983 
L 193.232312 167.126108 
L 195.572467 161.51406 
L 197.912622 155.27429 
L 200.252778 150.707015 
L 202.592933 152.493795 
L 204.933088 147.372202 
L 207.273243 147.248581 
L 209.613399 142.168788 
L 211.953554 135.850795 
L 214.293709 136.679113 
L 216.633865 139.636058 
L 218.97402 132.648687 
L 221.314175 126.721309 
L 223.654331 128.444435 
L 225.994486 126.661052 
L 228.334641 131.592431 
L 230.674797 132.545585 
L 233.014952 132.785533 
L 235.355107 131.088608 
L 237.695263 128.564693 
L 240.035418 136.794345 
L 242.375573 138.48078 
L 244.715729 146.01559 
L 247.055884 143.940624 
L 249.396039 138.165113 
L 251.736195 139.607806 
L 254.07635 145.963823 
L 256.416505 140.50718 
L 258.756661 141.9124 
L 261.096816 146.673004 
L 263.436971 145.335703 
L 265.777127 147.178358 
L 268.117282 148.111215 
L 270.457437 142.078393 
L 272.797593 134.625547 
L 275.137748 129.646212 
L 277.477903 135.527072 
L 279.818058 142.587148 
L 282.158214 141.833445 
L 284.498369 140.53319 
L 286.838524 139.711676 
L 289.17868 141.731505 
L 291.518835 135.15477 
L 293.85899 135.613724 
L 298.539301 138.318414 
L 300.879456 136.946529 
L 303.219612 146.423624 
L 305.559767 148.122563 
L 310.240078 153.849309 
L 312.580233 152.851705 
L 314.920388 147.758039 
L 317.260544 146.516279 
L 319.600699 142.97584 
L 321.940854 148.06002 
L 324.28101 143.391885 
L 326.621165 136.480627 
L 328.96132 134.989004 
L 331.301476 137.381966 
L 333.641631 139.185958 
L 335.981786 146.844128 
L 338.321942 147.899288 
L 340.662097 140.771994 
L 343.002252 145.108157 
L 345.342407 145.762589 
L 347.682563 146.646136 
L 350.022718 143.543866 
L 352.362873 146.595407 
L 354.703029 146.916224 
L 357.043184 156.178014 
L 359.383339 156.260981 
L 361.723495 156.968368 
L 364.06365 159.202216 
L 366.403805 155.743866 
L 371.084116 159.531383 
L 373.424271 158.358653 
L 375.764427 159.229302 
L 378.104582 166.72353 
L 380.444737 166.522096 
L 382.784893 176.902588 
L 385.125048 181.574576 
L 387.465203 181.083144 
L 389.805359 187.464207 
L 392.145514 192.936533 
L 394.485669 197.783112 
L 396.825825 197.032798 
L 399.16598 191.627109 
L 401.506135 184.215649 
L 403.846291 179.885688 
L 408.526601 168.379732 
L 410.866757 170.195007 
L 413.206912 177.783721 
L 415.547067 174.563667 
L 417.887222 172.19553 
L 420.227378 161.284022 
L 422.567533 171.102297 
L 424.907688 170.175636 
L 427.247844 176.147675 
L 429.587999 174.495753 
L 431.928154 179.277734 
L 434.26831 179.740882 
L 436.608465 176.758784 
L 438.94862 174.029779 
L 441.288776 173.690047 
L 443.628931 177.405589 
L 445.969086 173.579017 
L 448.309242 177.495541 
L 450.649397 183.55378 
L 452.989552 187.453888 
L 455.329708 177.437837 
L 457.669863 183.662023 
L 460.010018 189.263921 
L 462.350174 192.192756 
L 464.690329 196.670281 
L 467.030484 199.006257 
L 469.37064 198.045225 
L 471.710795 200.658702 
L 474.05095 201.412684 
L 476.391106 206.034109 
L 478.731261 203.632275 
L 481.071416 207.609439 
L 483.411571 213.005298 
L 485.751727 210.915985 
L 488.091882 212.167837 
L 490.432037 210.560488 
L 492.772193 210.756713 
L 495.112348 214.850079 
L 497.452503 219.307224 
L 499.792659 228.675583 
L 502.132814 230.282488 
L 504.472969 223.655742 
L 506.813125 213.421317 
L 509.15328 215.249245 
L 511.493435 213.689614 
L 513.833591 209.900599 
L 516.173746 206.54175 
L 518.513901 209.508215 
L 520.854057 208.405724 
L 523.194212 214.715423 
L 525.534367 220.020126 
L 527.874523 234.308404 
L 530.214678 236.078182 
L 534.894989 232.430054 
L 537.235144 227.403908 
L 539.575299 225.636365 
L 541.915455 221.447715 
L 541.915455 221.447715 
" style="fill:none;stroke:#ff7f0e;stroke-linecap:square;stroke-width:1.5;"/>
   </g>
   <g id="line2d_27">
    <path clip-path="url(#pcb68d26958)" d="M 76.224545 123.261999 
L 78.564701 122.835154 
L 80.904856 120.047367 
L 83.245011 120.633466 
L 85.585167 120.52096 
L 87.925322 121.368929 
L 90.265477 119.772337 
L 94.945788 101.853231 
L 97.285943 109.217666 
L 99.626099 108.459156 
L 101.966254 102.118431 
L 104.306409 103.739088 
L 106.646565 107.782588 
L 108.98672 106.350789 
L 111.326875 102.501816 
L 113.667031 115.118417 
L 116.007186 112.009263 
L 118.347341 114.4985 
L 120.687497 114.397396 
L 123.027652 112.106339 
L 125.367807 110.952588 
L 127.707963 111.210556 
L 130.048118 103.672219 
L 132.388273 110.225231 
L 134.728429 120.383496 
L 137.068584 117.780269 
L 139.408739 116.637364 
L 141.748894 113.124301 
L 144.08905 112.668751 
L 146.429205 118.802924 
L 148.76936 123.997138 
L 151.109516 125.765968 
L 153.449671 120.334437 
L 155.789826 119.430792 
L 158.129982 116.169709 
L 160.470137 116.747184 
L 162.810292 113.247843 
L 165.150448 108.308505 
L 167.490603 108.074072 
L 169.830758 111.897608 
L 172.170914 112.198086 
L 174.511069 111.869619 
L 176.851224 112.995097 
L 179.19138 115.301477 
L 181.531535 114.690013 
L 183.87169 119.237649 
L 186.211846 128.356797 
L 188.552001 128.551429 
L 190.892156 132.27232 
L 195.572467 136.376644 
L 197.912622 137.082615 
L 200.252778 140.148204 
L 202.592933 139.275773 
L 204.933088 139.251926 
L 207.273243 127.078225 
L 209.613399 119.432392 
L 211.953554 122.738431 
L 214.293709 113.645274 
L 216.633865 121.93051 
L 218.97402 121.931557 
L 221.314175 118.863181 
L 223.654331 115.333983 
L 225.994486 123.754477 
L 228.334641 123.170291 
L 230.674797 127.806455 
L 233.014952 129.120866 
L 235.355107 132.801912 
L 237.695263 131.591229 
L 240.035418 130.798519 
L 242.375573 137.326791 
L 244.715729 133.204492 
L 247.055884 134.320592 
L 249.396039 139.289104 
L 251.736195 136.855402 
L 254.07635 135.084689 
L 256.416505 141.417478 
L 258.756661 144.646495 
L 261.096816 147.315694 
L 263.436971 155.326275 
L 265.777127 149.627609 
L 268.117282 145.75763 
L 270.457437 147.266341 
L 272.797593 137.347699 
L 275.137748 135.786242 
L 277.477903 141.633293 
L 279.818058 143.074655 
L 282.158214 131.889202 
L 284.498369 129.214073 
L 286.838524 130.297785 
L 289.17868 132.285292 
L 291.518835 132.635961 
L 293.85899 128.020229 
L 296.199146 125.523632 
L 298.539301 119.641961 
L 300.879456 119.22143 
L 303.219612 122.769632 
L 305.559767 132.233295 
L 307.899922 128.009874 
L 310.240078 129.762132 
L 312.580233 127.75117 
L 314.920388 128.27098 
L 317.260544 130.337639 
L 319.600699 126.16373 
L 321.940854 128.800984 
L 324.28101 124.507525 
L 326.621165 128.470874 
L 328.96132 128.823964 
L 331.301476 120.922096 
L 333.641631 123.142222 
L 335.981786 126.899333 
L 338.321942 137.2999 
L 340.662097 127.016688 
L 343.002252 126.574677 
L 345.342407 128.031311 
L 347.682563 129.00343 
L 350.022718 125.23693 
L 352.362873 122.332347 
L 354.703029 119.674513 
L 357.043184 120.662347 
L 359.383339 120.808179 
L 361.723495 120.11391 
L 364.06365 115.461835 
L 366.403805 117.410011 
L 368.743961 117.479133 
L 371.084116 115.346129 
L 373.424271 108.389055 
L 375.764427 99.46403 
L 378.104582 101.468803 
L 380.444737 98.263822 
L 382.784893 99.102886 
L 385.125048 93.364503 
L 387.465203 86.582254 
L 389.805359 85.635718 
L 392.145514 84.153219 
L 394.485669 80.59556 
L 396.825825 70.435413 
L 399.16598 69.443995 
L 401.506135 69.223013 
L 403.846291 69.164074 
L 406.186446 69.500135 
L 408.526601 66.386956 
L 410.866757 62.317822 
L 413.206912 68.151572 
L 415.547067 65.891571 
L 417.887222 64.89528 
L 420.227378 58.197487 
L 422.567533 56.480567 
L 424.907688 51.861347 
L 427.247844 53.761972 
L 429.587999 52.965645 
L 431.928154 49.703215 
L 434.26831 43.88638 
L 436.608465 47.287845 
L 438.94862 47.569517 
L 441.288776 37.72868 
L 443.628931 42.617728 
L 445.969086 44.621434 
L 448.309242 50.651008 
L 450.649397 55.245426 
L 455.329708 51.698057 
L 457.669863 54.345265 
L 460.010018 57.283579 
L 462.350174 55.910873 
L 464.690329 53.202663 
L 467.030484 53.82412 
L 469.37064 52.144559 
L 471.710795 50.764578 
L 474.05095 51.61258 
L 476.391106 40.860794 
L 478.731261 41.212531 
L 481.071416 41.369497 
L 483.411571 41.925392 
L 485.751727 37.943078 
L 488.091882 38.628181 
L 490.432037 36.841818 
L 492.772193 40.440968 
L 495.112348 44.622283 
L 497.452503 40.871187 
L 499.792659 41.66031 
L 502.132814 41.14342 
L 504.472969 42.659528 
L 506.813125 44.450307 
L 509.15328 50.603802 
L 511.493435 48.49251 
L 513.833591 46.622875 
L 516.173746 49.921801 
L 518.513901 50.68971 
L 520.854057 51.827371 
L 523.194212 45.143789 
L 525.534367 46.565991 
L 527.874523 46.212286 
L 530.214678 47.869028 
L 532.554833 50.506949 
L 534.894989 44.488691 
L 537.235144 37.161576 
L 539.575299 39.232629 
L 541.915455 42.957466 
L 541.915455 42.957466 
" style="fill:none;stroke:#2ca02c;stroke-linecap:square;stroke-width:1.5;"/>
   </g>
   <g id="patch_3">
    <path d="M 52.94 246.04 
L 52.94 26.88 
" style="fill:none;stroke:#000000;stroke-linecap:square;stroke-linejoin:miter;stroke-width:0.8;"/>
   </g>
   <g id="patch_4">
    <path d="M 565.2 246.04 
L 565.2 26.88 
" style="fill:none;stroke:#000000;stroke-linecap:square;stroke-linejoin:miter;stroke-width:0.8;"/>
   </g>
   <g id="patch_5">
    <path d="M 52.94 246.04 
L 565.2 246.04 
" style="fill:none;stroke:#000000;stroke-linecap:square;stroke-linejoin:miter;stroke-width:0.8;"/>
   </g>
   <g id="patch_6">
    <path d="M 52.94 26.88 
L 565.2 26.88 
" style="fill:none;stroke:#000000;stroke-linecap:square;stroke-linejoin:miter;stroke-width:0.8;"/>
   </g>
   <g id="text_15">
    <!-- Random Trends -->
    <g transform="translate(262.784687 20.88)scale(0.12 -0.12)">
     <defs>
      <path d="M 44.390625 34.1875 
Q 47.5625 33.109375 50.5625 29.59375 
Q 53.5625 26.078125 56.59375 19.921875 
L 66.609375 0 
L 56 0 
L 46.6875 18.703125 
Q 43.0625 26.03125 39.671875 28.421875 
Q 36.28125 30.8125 30.421875 30.8125 
L 19.671875 30.8125 
L 19.671875 0 
L 9.8125 0 
L 9.8125 72.90625 
L 32.078125 72.90625 
Q 44.578125 72.90625 50.734375 67.671875 
Q 56.890625 62.453125 56.890625 51.90625 
Q 56.890625 45.015625 53.6875 40.46875 
Q 50.484375 35.9375 44.390625 34.1875 
z
M 19.671875 64.796875 
L 19.671875 38.921875 
L 32.078125 38.921875 
Q 39.203125 38.921875 42.84375 42.21875 
Q 46.484375 45.515625 46.484375 51.90625 
Q 46.484375 58.296875 42.84375 61.546875 
Q 39.203125 64.796875 32.078125 64.796875 
z
" id="DejaVuSans-82"/>
      <path d="M 54.890625 33.015625 
L 54.890625 0 
L 45.90625 0 
L 45.90625 32.71875 
Q 45.90625 40.484375 42.875 44.328125 
Q 39.84375 48.1875 33.796875 48.1875 
Q 26.515625 48.1875 22.3125 43.546875 
Q 18.109375 38.921875 18.109375 30.90625 
L 18.109375 0 
L 9.078125 0 
L 9.078125 54.6875 
L 18.109375 54.6875 
L 18.109375 46.1875 
Q 21.34375 51.125 25.703125 53.5625 
Q 30.078125 56 35.796875 56 
Q 45.21875 56 50.046875 50.171875 
Q 54.890625 44.34375 54.890625 33.015625 
z
" id="DejaVuSans-110"/>
      <path d="M 45.40625 46.390625 
L 45.40625 75.984375 
L 54.390625 75.984375 
L 54.390625 0 
L 45.40625 0 
L 45.40625 8.203125 
Q 42.578125 3.328125 38.25 0.953125 
Q 33.9375 -1.421875 27.875 -1.421875 
Q 17.96875 -1.421875 11.734375 6.484375 
Q 5.515625 14.40625 5.515625 27.296875 
Q 5.515625 40.1875 11.734375 48.09375 
Q 17.96875 56 27.875 56 
Q 33.9375 56 38.25 53.625 
Q 42.578125 51.265625 45.40625 46.390625 
z
M 14.796875 27.296875 
Q 14.796875 17.390625 18.875 11.75 
Q 22.953125 6.109375 30.078125 6.109375 
Q 37.203125 6.109375 41.296875 11.75 
Q 45.40625 17.390625 45.40625 27.296875 
Q 45.40625 37.203125 41.296875 42.84375 
Q 37.203125 48.484375 30.078125 48.484375 
Q 22.953125 48.484375 18.875 42.84375 
Q 14.796875 37.203125 14.796875 27.296875 
z
" id="DejaVuSans-100"/>
      <path d="M 30.609375 48.390625 
Q 23.390625 48.390625 19.1875 42.75 
Q 14.984375 37.109375 14.984375 27.296875 
Q 14.984375 17.484375 19.15625 11.84375 
Q 23.34375 6.203125 30.609375 6.203125 
Q 37.796875 6.203125 41.984375 11.859375 
Q 46.1875 17.53125 46.1875 27.296875 
Q 46.1875 37.015625 41.984375 42.703125 
Q 37.796875 48.390625 30.609375 48.390625 
z
M 30.609375 56 
Q 42.328125 56 49.015625 48.375 
Q 55.71875 40.765625 55.71875 27.296875 
Q 55.71875 13.875 49.015625 6.21875 
Q 42.328125 -1.421875 30.609375 -1.421875 
Q 18.84375 -1.421875 12.171875 6.21875 
Q 5.515625 13.875 5.515625 27.296875 
Q 5.515625 40.765625 12.171875 48.375 
Q 18.84375 56 30.609375 56 
z
" id="DejaVuSans-111"/>
      <path d="M -0.296875 72.90625 
L 61.375 72.90625 
L 61.375 64.59375 
L 35.5 64.59375 
L 35.5 0 
L 25.59375 0 
L 25.59375 64.59375 
L -0.296875 64.59375 
z
" id="DejaVuSans-84"/>
      <path d="M 41.109375 46.296875 
Q 39.59375 47.171875 37.8125 47.578125 
Q 36.03125 48 33.890625 48 
Q 26.265625 48 22.1875 43.046875 
Q 18.109375 38.09375 18.109375 28.8125 
L 18.109375 0 
L 9.078125 0 
L 9.078125 54.6875 
L 18.109375 54.6875 
L 18.109375 46.1875 
Q 20.953125 51.171875 25.484375 53.578125 
Q 30.03125 56 36.53125 56 
Q 37.453125 56 38.578125 55.875 
Q 39.703125 55.765625 41.0625 55.515625 
z
" id="DejaVuSans-114"/>
     </defs>
     <use xlink:href="#DejaVuSans-82"/>
     <use x="67.232422" xlink:href="#DejaVuSans-97"/>
     <use x="128.511719" xlink:href="#DejaVuSans-110"/>
     <use x="191.890625" xlink:href="#DejaVuSans-100"/>
     <use x="255.367188" xlink:href="#DejaVuSans-111"/>
     <use x="316.548828" xlink:href="#DejaVuSans-109"/>
     <use x="413.960938" xlink:href="#DejaVuSans-32"/>
     <use x="445.748047" xlink:href="#DejaVuSans-84"/>
     <use x="492.082031" xlink:href="#DejaVuSans-114"/>
     <use x="530.945312" xlink:href="#DejaVuSans-101"/>
     <use x="592.46875" xlink:href="#DejaVuSans-110"/>
     <use x="655.847656" xlink:href="#DejaVuSans-100"/>
     <use x="719.324219" xlink:href="#DejaVuSans-115"/>
    </g>
   </g>
   <g id="legend_1">
    <g id="patch_7">
     <path d="M 58.771 70.414663 
L 110.501602 70.414663 
Q 112.167602 70.414663 112.167602 68.748663 
L 112.167602 32.711 
Q 112.167602 31.045 110.501602 31.045 
L 58.771 31.045 
Q 57.105 31.045 57.105 32.711 
L 57.105 68.748663 
Q 57.105 70.414663 58.771 70.414663 
z
" style="fill:#ffffff;opacity:0.25;stroke:#cccccc;stroke-linejoin:miter;"/>
    </g>
    <g id="line2d_28">
     <path d="M 60.437 37.835252 
L 77.097 37.835252 
" style="fill:none;stroke:#1f77b4;stroke-linecap:square;stroke-width:1.5;"/>
    </g>
    <g id="line2d_29"/>
    <g id="text_16">
     <!-- foo -->
     <g transform="translate(83.761 40.750752)scale(0.0833 -0.0833)">
      <defs>
       <path d="M 51.90625 75.984375 
L 51.90625 68.5 
L 41.703125 68.5 
Q 36.859375 68.5 34.984375 66.515625 
Q 33.109375 64.546875 33.109375 59.515625 
L 33.109375 54.6875 
L 51.90625 54.6875 
L 51.90625 47.703125 
L 33.109375 47.703125 
L 33.109375 0 
L 24.125 0 
L 24.125 47.703125 
L 9.515625 47.703125 
L 9.515625 54.6875 
L 24.125 54.6875 
L 24.125 58.5 
Q 24.125 67.484375 28.25 71.734375 
Q 32.375 75.984375 41.109375 75.984375 
z
" id="DejaVuSansMono-102"/>
       <path d="M 30.078125 48.390625 
Q 23.25 48.390625 19.734375 43.0625 
Q 16.21875 37.75 16.21875 27.296875 
Q 16.21875 16.890625 19.734375 11.546875 
Q 23.25 6.203125 30.078125 6.203125 
Q 36.96875 6.203125 40.484375 11.546875 
Q 44 16.890625 44 27.296875 
Q 44 37.75 40.484375 43.0625 
Q 36.96875 48.390625 30.078125 48.390625 
z
M 30.078125 56 
Q 41.453125 56 47.484375 48.625 
Q 53.515625 41.265625 53.515625 27.296875 
Q 53.515625 13.28125 47.5 5.921875 
Q 41.5 -1.421875 30.078125 -1.421875 
Q 18.703125 -1.421875 12.6875 5.921875 
Q 6.6875 13.28125 6.6875 27.296875 
Q 6.6875 41.265625 12.6875 48.625 
Q 18.703125 56 30.078125 56 
z
" id="DejaVuSansMono-111"/>
      </defs>
      <use xlink:href="#DejaVuSansMono-102"/>
      <use x="60.205078" xlink:href="#DejaVuSansMono-111"/>
      <use x="120.410156" xlink:href="#DejaVuSansMono-111"/>
     </g>
    </g>
    <g id="line2d_30">
     <path d="M 60.437 50.106383 
L 77.097 50.106383 
" style="fill:none;stroke:#ff7f0e;stroke-linecap:square;stroke-width:1.5;"/>
    </g>
    <g id="line2d_31"/>
    <g id="text_17">
     <!-- bar -->
     <g transform="translate(83.761 53.021883)scale(0.0833 -0.0833)">
      <defs>
       <path d="M 44.828125 27.296875 
Q 44.828125 37.75 41.5 43.0625 
Q 38.1875 48.390625 31.6875 48.390625 
Q 25.140625 48.390625 21.765625 43.046875 
Q 18.40625 37.703125 18.40625 27.296875 
Q 18.40625 16.9375 21.765625 11.5625 
Q 25.140625 6.203125 31.6875 6.203125 
Q 38.1875 6.203125 41.5 11.515625 
Q 44.828125 16.84375 44.828125 27.296875 
z
M 18.40625 47.703125 
Q 20.5625 51.703125 24.34375 53.84375 
Q 28.125 56 33.109375 56 
Q 42.96875 56 48.625 48.40625 
Q 54.296875 40.828125 54.296875 27.484375 
Q 54.296875 13.96875 48.609375 6.265625 
Q 42.921875 -1.421875 33.015625 -1.421875 
Q 28.125 -1.421875 24.390625 0.703125 
Q 20.65625 2.828125 18.40625 6.890625 
L 18.40625 0 
L 9.421875 0 
L 9.421875 75.984375 
L 18.40625 75.984375 
z
" id="DejaVuSansMono-98"/>
       <path d="M 34.28125 27.484375 
L 31.296875 27.484375 
Q 23.4375 27.484375 19.453125 24.71875 
Q 15.484375 21.96875 15.484375 16.5 
Q 15.484375 11.578125 18.453125 8.84375 
Q 21.4375 6.109375 26.703125 6.109375 
Q 34.125 6.109375 38.375 11.25 
Q 42.625 16.40625 42.671875 25.484375 
L 42.671875 27.484375 
z
M 51.703125 31.203125 
L 51.703125 0 
L 42.671875 0 
L 42.671875 8.109375 
Q 39.796875 3.21875 35.421875 0.890625 
Q 31.0625 -1.421875 24.8125 -1.421875 
Q 16.453125 -1.421875 11.46875 3.296875 
Q 6.5 8.015625 6.5 15.921875 
Q 6.5 25.046875 12.625 29.78125 
Q 18.75 34.515625 30.609375 34.515625 
L 42.671875 34.515625 
L 42.671875 35.9375 
Q 42.625 42.484375 39.34375 45.4375 
Q 36.078125 48.390625 28.90625 48.390625 
Q 24.3125 48.390625 19.625 47.0625 
Q 14.9375 45.75 10.5 43.21875 
L 10.5 52.203125 
Q 15.484375 54.109375 20.046875 55.046875 
Q 24.609375 56 28.90625 56 
Q 35.6875 56 40.5 54 
Q 45.3125 52 48.296875 48 
Q 50.140625 45.5625 50.921875 41.96875 
Q 51.703125 38.375 51.703125 31.203125 
z
" id="DejaVuSansMono-97"/>
       <path d="M 56.390625 43.40625 
Q 53.515625 45.65625 50.53125 46.671875 
Q 47.5625 47.703125 44 47.703125 
Q 35.59375 47.703125 31.140625 42.421875 
Q 26.703125 37.15625 26.703125 27.203125 
L 26.703125 0 
L 17.671875 0 
L 17.671875 54.6875 
L 26.703125 54.6875 
L 26.703125 44 
Q 28.953125 49.8125 33.609375 52.90625 
Q 38.28125 56 44.671875 56 
Q 48 56 50.875 55.171875 
Q 53.765625 54.34375 56.390625 52.59375 
z
" id="DejaVuSansMono-114"/>
      </defs>
      <use xlink:href="#DejaVuSansMono-98"/>
      <use x="60.205078" xlink:href="#DejaVuSansMono-97"/>
      <use x="120.410156" xlink:href="#DejaVuSansMono-114"/>
     </g>
    </g>
    <g id="line2d_32">
     <path d="M 60.437 62.377514 
L 77.097 62.377514 
" style="fill:none;stroke:#2ca02c;stroke-linecap:square;stroke-width:1.5;"/>
    </g>
    <g id="line2d_33"/>
    <g id="text_18">
     <!-- mongo -->
     <g transform="translate(83.761 65.293014)scale(0.0833 -0.0833)">
      <defs>
       <path d="M 33.015625 49.125 
Q 34.671875 52.640625 37.234375 54.3125 
Q 39.796875 56 43.40625 56 
Q 50 56 52.703125 50.890625 
Q 55.421875 45.796875 55.421875 31.6875 
L 55.421875 0 
L 47.21875 0 
L 47.21875 31.296875 
Q 47.21875 42.875 45.921875 45.671875 
Q 44.625 48.484375 41.21875 48.484375 
Q 37.3125 48.484375 35.859375 45.484375 
Q 34.421875 42.484375 34.421875 31.296875 
L 34.421875 0 
L 26.21875 0 
L 26.21875 31.296875 
Q 26.21875 43.015625 24.828125 45.75 
Q 23.4375 48.484375 19.828125 48.484375 
Q 16.265625 48.484375 14.875 45.484375 
Q 13.484375 42.484375 13.484375 31.296875 
L 13.484375 0 
L 5.328125 0 
L 5.328125 54.6875 
L 13.484375 54.6875 
L 13.484375 50 
Q 15.09375 52.9375 17.5 54.46875 
Q 19.921875 56 23 56 
Q 26.703125 56 29.171875 54.296875 
Q 31.640625 52.59375 33.015625 49.125 
z
" id="DejaVuSansMono-109"/>
       <path d="M 51.3125 33.890625 
L 51.3125 0 
L 42.28125 0 
L 42.28125 33.890625 
Q 42.28125 41.265625 39.6875 44.71875 
Q 37.109375 48.1875 31.59375 48.1875 
Q 25.296875 48.1875 21.890625 43.71875 
Q 18.5 39.265625 18.5 30.90625 
L 18.5 0 
L 9.515625 0 
L 9.515625 54.6875 
L 18.5 54.6875 
L 18.5 46.484375 
Q 20.90625 51.171875 25 53.578125 
Q 29.109375 56 34.71875 56 
Q 43.0625 56 47.1875 50.5 
Q 51.3125 45.015625 51.3125 33.890625 
z
" id="DejaVuSansMono-110"/>
       <path d="M 41.890625 27.78125 
Q 41.890625 37.890625 38.59375 43.140625 
Q 35.296875 48.390625 29 48.390625 
Q 22.40625 48.390625 18.9375 43.140625 
Q 15.484375 37.890625 15.484375 27.78125 
Q 15.484375 17.671875 18.96875 12.375 
Q 22.46875 7.078125 29.109375 7.078125 
Q 35.296875 7.078125 38.59375 12.390625 
Q 41.890625 17.71875 41.890625 27.78125 
z
M 50.875 3.515625 
Q 50.875 -8.796875 45.0625 -15.140625 
Q 39.265625 -21.484375 27.984375 -21.484375 
Q 24.265625 -21.484375 20.203125 -20.796875 
Q 16.15625 -20.125 12.109375 -18.796875 
L 12.109375 -9.90625 
Q 16.890625 -12.15625 20.796875 -13.234375 
Q 24.703125 -14.3125 27.984375 -14.3125 
Q 35.25 -14.3125 38.5625 -10.34375 
Q 41.890625 -6.390625 41.890625 2.203125 
L 41.890625 2.59375 
L 41.890625 8.6875 
Q 39.75 4.109375 36.03125 1.859375 
Q 32.328125 -0.390625 27 -0.390625 
Q 17.4375 -0.390625 11.71875 7.265625 
Q 6 14.9375 6 27.78125 
Q 6 40.671875 11.71875 48.328125 
Q 17.4375 56 27 56 
Q 32.28125 56 35.9375 53.90625 
Q 39.59375 51.8125 41.890625 47.40625 
L 41.890625 54.5 
L 50.875 54.5 
z
" id="DejaVuSansMono-103"/>
      </defs>
      <use xlink:href="#DejaVuSansMono-109"/>
      <use x="60.205078" xlink:href="#DejaVuSansMono-111"/>
      <use x="120.410156" xlink:href="#DejaVuSansMono-110"/>
      <use x="180.615234" xlink:href="#DejaVuSansMono-103"/>
      <use x="240.820312" xlink:href="#DejaVuSansMono-111"/>
     </g>
    </g>
   </g>
  </g>
  <g id="text_19">
   <!-- I Acme designs 2020 -->
   <g transform="translate(468.743438 283.040313)scale(0.1 -0.1)">
    <defs>
     <path d="M 9.8125 72.90625 
L 19.671875 72.90625 
L 19.671875 0 
L 9.8125 0 
z
" id="DejaVuSans-73"/>
     <path d="M 34.1875 63.1875 
L 20.796875 26.90625 
L 47.609375 26.90625 
z
M 28.609375 72.90625 
L 39.796875 72.90625 
L 67.578125 0 
L 57.328125 0 
L 50.6875 18.703125 
L 17.828125 18.703125 
L 11.1875 0 
L 0.78125 0 
z
" id="DejaVuSans-65"/>
     <path d="M 48.78125 52.59375 
L 48.78125 44.1875 
Q 44.96875 46.296875 41.140625 47.34375 
Q 37.3125 48.390625 33.40625 48.390625 
Q 24.65625 48.390625 19.8125 42.84375 
Q 14.984375 37.3125 14.984375 27.296875 
Q 14.984375 17.28125 19.8125 11.734375 
Q 24.65625 6.203125 33.40625 6.203125 
Q 37.3125 6.203125 41.140625 7.25 
Q 44.96875 8.296875 48.78125 10.40625 
L 48.78125 2.09375 
Q 45.015625 0.34375 40.984375 -0.53125 
Q 36.96875 -1.421875 32.421875 -1.421875 
Q 20.0625 -1.421875 12.78125 6.34375 
Q 5.515625 14.109375 5.515625 27.296875 
Q 5.515625 40.671875 12.859375 48.328125 
Q 20.21875 56 33.015625 56 
Q 37.15625 56 41.109375 55.140625 
Q 45.0625 54.296875 48.78125 52.59375 
z
" id="DejaVuSans-99"/>
     <path d="M 45.40625 27.984375 
Q 45.40625 37.75 41.375 43.109375 
Q 37.359375 48.484375 30.078125 48.484375 
Q 22.859375 48.484375 18.828125 43.109375 
Q 14.796875 37.75 14.796875 27.984375 
Q 14.796875 18.265625 18.828125 12.890625 
Q 22.859375 7.515625 30.078125 7.515625 
Q 37.359375 7.515625 41.375 12.890625 
Q 45.40625 18.265625 45.40625 27.984375 
z
M 54.390625 6.78125 
Q 54.390625 -7.171875 48.1875 -13.984375 
Q 42 -20.796875 29.203125 -20.796875 
Q 24.46875 -20.796875 20.265625 -20.09375 
Q 16.0625 -19.390625 12.109375 -17.921875 
L 12.109375 -9.1875 
Q 16.0625 -11.328125 19.921875 -12.34375 
Q 23.78125 -13.375 27.78125 -13.375 
Q 36.625 -13.375 41.015625 -8.765625 
Q 45.40625 -4.15625 45.40625 5.171875 
L 45.40625 9.625 
Q 42.625 4.78125 38.28125 2.390625 
Q 33.9375 0 27.875 0 
Q 17.828125 0 11.671875 7.65625 
Q 5.515625 15.328125 5.515625 27.984375 
Q 5.515625 40.671875 11.671875 48.328125 
Q 17.828125 56 27.875 56 
Q 33.9375 56 38.28125 53.609375 
Q 42.625 51.21875 45.40625 46.390625 
L 45.40625 54.6875 
L 54.390625 54.6875 
z
" id="DejaVuSans-103"/>
    </defs>
    <use xlink:href="#DejaVuSans-73"/>
    <use x="29.492188" xlink:href="#DejaVuSans-32"/>
    <use x="61.279297" xlink:href="#DejaVuSans-65"/>
    <use x="127.9375" xlink:href="#DejaVuSans-99"/>
    <use x="182.917969" xlink:href="#DejaVuSans-109"/>
    <use x="280.330078" xlink:href="#DejaVuSans-101"/>
    <use x="341.853516" xlink:href="#DejaVuSans-32"/>
    <use x="373.640625" xlink:href="#DejaVuSans-100"/>
    <use x="437.117188" xlink:href="#DejaVuSans-101"/>
    <use x="498.640625" xlink:href="#DejaVuSans-115"/>
    <use x="550.740234" xlink:href="#DejaVuSans-105"/>
    <use x="578.523438" xlink:href="#DejaVuSans-103"/>
    <use x="642" xlink:href="#DejaVuSans-110"/>
    <use x="705.378906" xlink:href="#DejaVuSans-115"/>
    <use x="757.478516" xlink:href="#DejaVuSans-32"/>
    <use x="789.265625" xlink:href="#DejaVuSans-50"/>
    <use x="852.888672" xlink:href="#DejaVuSans-48"/>
    <use x="916.511719" xlink:href="#DejaVuSans-50"/>
    <use x="980.134766" xlink:href="#DejaVuSans-48"/>
   </g>
  </g>
 </g>
 <defs>
  <clipPath id="pcb68d26958">
   <rect height="219.16" width="512.26" x="52.94" y="26.88"/>
  </clipPath>
 </defs>
</svg>
